<svg xmlns="http://www.w3.org/2000/svg" xmlns:xlink="http://www.w3.org/1999/xlink" width="89.706" height="73.239" viewBox="0 0 89.706 73.239">
  <defs>
    <filter id="Tracé_90" x="0" y="0" width="89.706" height="73.239" filterUnits="userSpaceOnUse">
      <feOffset input="SourceAlpha"/>
      <feGaussianBlur stdDeviation="3" result="blur"/>
      <feFlood flood-color="#ccff90"/>
      <feComposite operator="in" in2="blur"/>
      <feComposite in="SourceGraphic"/>
    </filter>
  </defs>
  <g id="_015-car" data-name="015-car" transform="translate(9 9)">
    <g transform="matrix(1, 0, 0, 1, -9, -9)" filter="url(#Tracé_90)">
      <path id="Tracé_90-2" data-name="Tracé 90" d="M71.628,94.817a5.686,5.686,0,0,0-3.6-5.221L54.049,84.04l-.01-.014L48.664,70.449h4a1.426,1.426,0,0,0,0-2.852H49.618V61.846a4.1,4.1,0,0,0-4.1-4.1H29.353a4.106,4.106,0,0,0-3.82,2.613H13.29a4.105,4.105,0,0,0-4.1,4.1V67.6H7.129a1.426,1.426,0,1,0,0,2.852h4.436L5.443,85.105A5.71,5.71,0,0,0,0,90.8v9.635a5.71,5.71,0,0,0,5.7,5.7H6.8a8.363,8.363,0,0,0,16.447,0h4.323a1.426,1.426,0,1,0,0-2.852H23.276a8.364,8.364,0,0,0-16.515,0H5.7a2.855,2.855,0,0,1-2.852-2.852V90.8A2.855,2.855,0,0,1,5.7,87.951H44.347l7.992-1.528c.026.012,14.64,5.823,14.64,5.823a2.843,2.843,0,0,1,1.8,2.61l.077,5.542A2.852,2.852,0,0,1,66,103.29H62.058a8.364,8.364,0,0,0-16.515,0h-5.05a1.426,1.426,0,0,0,0,2.852h5.084a8.363,8.363,0,0,0,16.447,0H66a5.7,5.7,0,0,0,5.7-5.782Zm-56.61,4.291a5.513,5.513,0,1,1-5.513,5.513,5.519,5.519,0,0,1,5.513-5.513ZM25.253,67.6H20.809V63.211h4.444V67.6Zm21.513-5.751V67.6h-7.7v-7h6.451A1.25,1.25,0,0,1,46.766,61.846ZM29.353,60.6h6.862v7H28.1V61.846A1.25,1.25,0,0,1,29.353,60.6ZM12.041,64.46a1.25,1.25,0,0,1,1.249-1.249h4.668V67.6H12.041ZM8.5,85.185l6.116-14.638H28.85V85.185H8.5Zm23.2,0V70.547H45.636L50.884,83.8l-6.969,1.38Zm22.1,24.949a5.513,5.513,0,1,1,5.513-5.513A5.519,5.519,0,0,1,53.8,110.134Z" transform="translate(9 -48.75)" fill="#ccff90"/>
    </g>
    <ellipse id="Ellipse_5" data-name="Ellipse 5" cx="1.426" cy="1.426" rx="1.426" ry="1.426" transform="translate(52.422 45.544)" fill="#ccff90"/>
    <ellipse id="Ellipse_6" data-name="Ellipse 6" cx="1.426" cy="1.426" rx="1.426" ry="1.426" transform="translate(13.498 45.544)" fill="#ccff90"/>
    <ellipse id="Ellipse_7" data-name="Ellipse 7" cx="1.426" cy="1.426" rx="1.426" ry="1.426" transform="translate(32.627 45.615)" fill="#ccff90"/>
  </g>
</svg>
