<svg xmlns="http://www.w3.org/2000/svg" width="702" height="702" viewBox="0 0 702 702">
  <g id="Tracé_106" data-name="Tracé 106" fill="none">
    <path d="M351,0C544.852,0,702,157.148,702,351S544.852,702,351,702A350.978,350.978,0,0,1,0,351C0,157.148,157.148,0,351,0Z" stroke="none"/>
    <path d="M 351 4 C 339.1616516113281 4 327.2231750488281 4.60284423828125 315.5164489746094 5.791748046875 C 303.9802856445312 6.9632568359375 292.3884582519531 8.73236083984375 281.0631713867188 11.0499267578125 C 258.78564453125 15.6085205078125 236.8727416992188 22.41064453125 215.9331970214844 31.267333984375 C 195.3728942871094 39.963623046875 175.5421142578125 50.72747802734375 156.9918212890625 63.25982666015625 C 138.61669921875 75.673828125 121.3374633789062 89.9305419921875 105.6339721679688 105.6339721679688 C 89.9305419921875 121.3374633789062 75.673828125 138.61669921875 63.25982666015625 156.9918212890625 C 50.72747802734375 175.5421142578125 39.963623046875 195.3728942871094 31.267333984375 215.9331970214844 C 22.41064453125 236.8727416992188 15.6085205078125 258.78564453125 11.0499267578125 281.0631713867188 C 8.73236083984375 292.3884582519531 6.9632568359375 303.9802856445312 5.791748046875 315.5164489746094 C 4.60284423828125 327.2231750488281 4 339.1616516113281 4 351 C 4 371.7451782226562 5.84429931640625 392.528076171875 9.4814453125 412.7714538574219 C 13.0343017578125 432.5451965332031 18.353515625 452.1195678710938 25.29144287109375 470.9507446289062 C 32.1068115234375 489.4492797851562 40.582275390625 507.4996337890625 50.4825439453125 524.6005249023438 C 60.27191162109375 541.5098876953125 71.585205078125 557.718017578125 84.108154296875 572.7747192382812 C 99.99871826171875 591.88037109375 117.9841918945312 609.3233642578125 137.5650634765625 624.6192626953125 C 157.2802734375 640.0200805664062 178.6810913085938 653.2962646484375 201.1729125976562 664.0789794921875 C 224.0770874023438 675.0594482421875 248.2320861816406 683.5087280273438 272.9670104980469 689.1921997070312 C 285.5516357421875 692.0838012695312 298.4569091796875 694.2925415039062 311.3242797851562 695.7568969726562 C 324.4023742675781 697.245361328125 337.7511901855469 698 351 698 C 362.8383483886719 698 374.7768249511719 697.3971557617188 386.4835510253906 696.208251953125 C 398.0197143554688 695.0367431640625 409.6115417480469 693.2676391601562 420.9368286132812 690.9500732421875 C 443.21435546875 686.3914794921875 465.1272583007812 679.58935546875 486.0668334960938 670.732666015625 C 506.6270751953125 662.036376953125 526.4578857421875 651.2725219726562 545.0081787109375 638.7401733398438 C 563.38330078125 626.326171875 580.6625366210938 612.0694580078125 596.365966796875 596.365966796875 C 612.0694580078125 580.6625366210938 626.326171875 563.38330078125 638.7401733398438 545.0081787109375 C 651.2725219726562 526.4578857421875 662.036376953125 506.6270751953125 670.732666015625 486.0668334960938 C 679.58935546875 465.1272583007812 686.3914794921875 443.21435546875 690.9500732421875 420.9368286132812 C 693.2676391601562 409.6115417480469 695.0367431640625 398.0197143554688 696.208251953125 386.4835510253906 C 697.3971557617188 374.7768249511719 698 362.8383483886719 698 351 C 698 339.1616516113281 697.3971557617188 327.2231750488281 696.208251953125 315.5164489746094 C 695.0367431640625 303.9802856445312 693.2676391601562 292.3884582519531 690.9500732421875 281.0631713867188 C 686.3914794921875 258.78564453125 679.58935546875 236.8727416992188 670.732666015625 215.9331970214844 C 662.036376953125 195.3728942871094 651.2725219726562 175.5421142578125 638.7401733398438 156.9918212890625 C 626.326171875 138.61669921875 612.0694580078125 121.3374633789062 596.365966796875 105.6339721679688 C 580.6625366210938 89.9305419921875 563.38330078125 75.673828125 545.0081787109375 63.25982666015625 C 526.4578857421875 50.72747802734375 506.6270751953125 39.963623046875 486.0668334960938 31.267333984375 C 465.1272583007812 22.41064453125 443.21435546875 15.6085205078125 420.9368286132812 11.0499267578125 C 409.6115417480469 8.73236083984375 398.0197143554688 6.9632568359375 386.4835510253906 5.791748046875 C 374.7768249511719 4.60284423828125 362.8383483886719 4 351 4 M 351 0 C 544.8519287109375 0 702 157.1480712890625 702 351 C 702 544.8519287109375 544.8519287109375 702 351 702 C 242.4429016113281 702 145.3961791992188 652.7183837890625 81.0328369140625 575.33251953125 C 30.42388916015625 514.4838256835938 0 436.2948303222656 0 351 C 0 157.1480712890625 157.1480712890625 0 351 0 Z" stroke="none" fill="#ccff90"/>
  </g>
</svg>
