<svg xmlns="http://www.w3.org/2000/svg" xmlns:xlink="http://www.w3.org/1999/xlink" width="89.005" height="86.226" viewBox="0 0 89.005 86.226">
  <defs>
    <filter id="Tracé_86" x="0" y="0" width="89.005" height="86.226" filterUnits="userSpaceOnUse">
      <feOffset input="SourceAlpha"/>
      <feGaussianBlur stdDeviation="3" result="blur"/>
      <feFlood flood-color="#ccff90"/>
      <feComposite operator="in" in2="blur"/>
      <feComposite in="SourceGraphic"/>
    </filter>
  </defs>
  <g id="_002-map" data-name="002-map" transform="translate(9 9)">
    <g transform="matrix(1, 0, 0, 1, -9, -9)" filter="url(#Tracé_86)">
      <path id="Tracé_86-2" data-name="Tracé 86" d="M69.771,20.6l-4.079-.553a1.426,1.426,0,0,0-.383,2.826l2.845.386V74.911L48.334,72.167V53.725A9.592,9.592,0,0,1,50.3,54.3a6.853,6.853,0,0,1,4.231,5.03,18.32,18.32,0,0,0,2.442,6,4.417,4.417,0,1,0,2.069-2.069,16.589,16.589,0,0,1-1.734-4.583A9.688,9.688,0,0,0,51.4,51.663a12.557,12.557,0,0,0-3.063-.823V20.51l4.283.593a1.426,1.426,0,1,0,.391-2.824l-4.815-.667V11.174a1.426,1.426,0,0,0-1.426-1.426H24.1a1.426,1.426,0,0,0-1.426,1.426v4.02L1.257,17.754A1.426,1.426,0,0,0,0,19.169V73.706a1.44,1.44,0,0,0,1.6,1.416l22.671-2.711a1.426,1.426,0,0,0,1.257-1.416V67.136h19.96v6.273a1.426,1.426,0,0,0,1.23,1.412L69.384,77.96a1.44,1.44,0,0,0,1.621-1.412V22.012A1.426,1.426,0,0,0,69.771,20.6ZM62.522,67.244a1.565,1.565,0,1,1-1.565-1.565A1.567,1.567,0,0,1,62.522,67.244ZM45.341,12.6V45.681c-4.6-.3-5.626-3.7-6.692-9.073-.545-2.747-1.059-5.341-2.54-7.126a5.257,5.257,0,0,0-3.9-1.968c-2.426-.1-4.923,1.312-6.686,2.613V16.459c0-.006,0-.011,0-.017V12.6ZM2.852,72.1V20.435l19.818-2.37v23a13.769,13.769,0,0,1-8.934,9.966,4.416,4.416,0,1,0,.61,2.816,18.134,18.134,0,0,0,8.324-6.013V65.71c0,.006,0,.012,0,.018v4Zm8.675-18.78a1.565,1.565,0,1,1-1.565-1.565A1.567,1.567,0,0,1,11.526,53.319Zm14,10.966V33.83c1.319-1.235,4.293-3.562,6.563-3.466a2.383,2.383,0,0,1,1.829.94c1.019,1.228,1.465,3.477,1.937,5.859.527,2.657,1.072,5.405,2.519,7.6a8.4,8.4,0,0,0,6.97,3.771V64.284H25.522Z" transform="translate(9 -0.75)" fill="#ccff90"/>
    </g>
    <ellipse id="Ellipse_3" data-name="Ellipse 3" cx="1.426" cy="1.426" rx="1.426" ry="1.426" transform="translate(57.73 9.382)" fill="#ccff90"/>
  </g>
</svg>
