<svg xmlns="http://www.w3.org/2000/svg" xmlns:xlink="http://www.w3.org/1999/xlink" width="57.252" height="88.048" viewBox="0 0 57.252 88.048">
  <defs>
    <filter id="Tracé_98" x="27.302" y="0" width="29.951" height="88.048" filterUnits="userSpaceOnUse">
      <feOffset input="SourceAlpha"/>
      <feGaussianBlur stdDeviation="3" result="blur"/>
      <feFlood flood-color="#ccff90"/>
      <feComposite operator="in" in2="blur"/>
      <feComposite in="SourceGraphic"/>
    </filter>
    <filter id="Tracé_99" x="0" y="6.252" width="33.559" height="81.733" filterUnits="userSpaceOnUse">
      <feOffset input="SourceAlpha"/>
      <feGaussianBlur stdDeviation="3" result="blur-2"/>
      <feFlood flood-color="#ccff90"/>
      <feComposite operator="in" in2="blur-2"/>
      <feComposite in="SourceGraphic"/>
    </filter>
    <filter id="Tracé_100" x="12.708" y="6.252" width="27.755" height="51.267" filterUnits="userSpaceOnUse">
      <feOffset input="SourceAlpha"/>
      <feGaussianBlur stdDeviation="3" result="blur-3"/>
      <feFlood flood-color="#ccff90"/>
      <feComposite operator="in" in2="blur-3"/>
      <feComposite in="SourceGraphic"/>
    </filter>
    <filter id="Tracé_101" x="5.718" y="6.252" width="20.852" height="32.21" filterUnits="userSpaceOnUse">
      <feOffset input="SourceAlpha"/>
      <feGaussianBlur stdDeviation="3" result="blur-4"/>
      <feFlood flood-color="#ccff90"/>
      <feComposite operator="in" in2="blur-4"/>
      <feComposite in="SourceGraphic"/>
    </filter>
    <filter id="Tracé_102" x="13.893" y="6.252" width="20.852" height="32.21" filterUnits="userSpaceOnUse">
      <feOffset input="SourceAlpha"/>
      <feGaussianBlur stdDeviation="3" result="blur-5"/>
      <feFlood flood-color="#ccff90"/>
      <feComposite operator="in" in2="blur-5"/>
      <feComposite in="SourceGraphic"/>
    </filter>
  </defs>
  <g id="_041-restaurant" data-name="041-restaurant" transform="translate(9 9)">
    <ellipse id="Ellipse_11" data-name="Ellipse 11" cx="1.426" cy="1.426" rx="1.426" ry="1.426" transform="translate(12.649 43.037)" fill="#ccff90"/>
    <ellipse id="Ellipse_12" data-name="Ellipse 12" cx="1.426" cy="1.426" rx="1.426" ry="1.426" transform="translate(36.384 43.037)" fill="#ccff90"/>
    <g transform="matrix(1, 0, 0, 1, -9, -9)" filter="url(#Tracé_98)">
      <path id="Tracé_98-2" data-name="Tracé 98" d="M311.432,1.426A1.426,1.426,0,0,0,310.007,0c-1.957,0-5.794.649-7.756,2.391a8.037,8.037,0,0,0-2.768,5.971V32.629a1.425,1.425,0,0,0,.316.895l2.9,3.6V65.682a4.366,4.366,0,0,0,8.733,0v-14.9a1.426,1.426,0,1,0-2.852,0v14.9a1.515,1.515,0,0,1-3.03,0V36.621a1.425,1.425,0,0,0-.316-.895l-2.9-3.6V8.362a5.116,5.116,0,0,1,1.81-3.838,9.557,9.557,0,0,1,4.438-1.568V38.093a1.426,1.426,0,1,0,2.852,0Z" transform="translate(-263.18 9)" fill="#ccff90"/>
    </g>
    <g transform="matrix(1, 0, 0, 1, -9, -9)" filter="url(#Tracé_99)">
      <path id="Tracé_99-2" data-name="Tracé 99" d="M122.131,86.952a1.426,1.426,0,0,0-1.426,1.426v14.844a1.506,1.506,0,0,1-3.012,0V62.953a1.426,1.426,0,0,0-1.426-1.426,5.424,5.424,0,0,1-5.418-5.418V45.273a1.426,1.426,0,0,0-2.852,0V56.109a8.284,8.284,0,0,0,6.844,8.147v38.967a4.358,4.358,0,0,0,8.715,0V88.378A1.426,1.426,0,0,0,122.131,86.952Z" transform="translate(-99 -28.6)" fill="#ccff90"/>
    </g>
    <g transform="matrix(1, 0, 0, 1, -9, -9)" filter="url(#Tracé_100)">
      <path id="Tracé_100-2" data-name="Tracé 100" d="M205.453,43.847a1.426,1.426,0,0,0-1.426,1.426V56.109a5.454,5.454,0,0,1-5.477,5.418,1.426,1.426,0,0,0-1.426,1.426V75.688a1.426,1.426,0,0,0,2.852,0V64.257a8.3,8.3,0,0,0,6.9-8.148V45.273a1.426,1.426,0,0,0-1.426-1.426Z" transform="translate(-175.42 -28.6)" fill="#ccff90"/>
    </g>
    <g transform="matrix(1, 0, 0, 1, -9, -9)" filter="url(#Tracé_101)">
      <path id="Tracé_101-2" data-name="Tracé 101" d="M149.526,58.057a1.426,1.426,0,0,0,1.426-1.426V45.273a1.426,1.426,0,1,0-2.852,0V56.632A1.426,1.426,0,0,0,149.526,58.057Z" transform="translate(-133.38 -28.6)" fill="#ccff90"/>
    </g>
    <g transform="matrix(1, 0, 0, 1, -9, -9)" filter="url(#Tracé_102)">
      <path id="Tracé_102-2" data-name="Tracé 102" d="M206.865,58.057a1.426,1.426,0,0,0,1.426-1.426V45.273a1.426,1.426,0,1,0-2.852,0V56.632A1.426,1.426,0,0,0,206.865,58.057Z" transform="translate(-182.55 -28.6)" fill="#ccff90"/>
    </g>
  </g>
</svg>
